<?xml version="1.0" encoding="UTF-8"?>
<svg version="1.1" xmlns="http://www.w3.org/2000/svg" width="500" height="500">
<path d="M0 0 C165 0 330 0 500 0 C500 165 500 330 500 500 C335 500 170 500 0 500 C0 335 0 170 0 0 Z " fill="#EEE7DC" transform="translate(0,0)"/>
<path d="M0 0 C8.74249402 5.26995094 12.98660617 14.48115443 15.40625 24.12890625 C17.13453188 35.5460411 15.67078998 44.86315685 9.48046875 54.55859375 C6.0184646 58.96952072 2.49617053 61.25002582 -3.0078125 62.1328125 C-9.43313014 62.50020677 -14.04626467 61.67645262 -19.17578125 57.69921875 C-27.94844244 48.99403957 -32.30248675 37.1616845 -32.64453125 24.93359375 C-32.34135779 16.26701446 -30.0934714 8.35973141 -23.6640625 2.20703125 C-17.00063739 -2.87933589 -7.61577547 -3.12608567 0 0 Z " fill="#FE3534" transform="translate(278.20703125,236.31640625)"/>
<path d="M0 0 C8.74249402 5.26995094 12.98660617 14.48115443 15.40625 24.12890625 C17.13453188 35.5460411 15.67078998 44.86315685 9.48046875 54.55859375 C6.0184646 58.96952072 2.49617053 61.25002582 -3.0078125 62.1328125 C-9.43313014 62.50020677 -14.04626467 61.67645262 -19.17578125 57.69921875 C-27.94844244 48.99403957 -32.30248675 37.1616845 -32.64453125 24.93359375 C-32.34135779 16.26701446 -30.0934714 8.35973141 -23.6640625 2.20703125 C-17.00063739 -2.87933589 -7.61577547 -3.12608567 0 0 Z " fill="#FE3534" transform="translate(127.20703125,236.31640625)"/>
<path d="M0 0 C10.77487005 9.15008806 16.66997998 28.26622228 22 41 C21.70994293 38.4789721 21.4183062 35.95815082 21.125 33.4375 C21.03621582 32.67332764 20.94743164 31.90915527 20.85595703 31.12182617 C20.11579706 24.82396239 19.26689895 18.54674882 18.3671875 12.26953125 C17.46137857 4.2039773 17.46137857 4.2039773 19.0625 0.625 C21 -1 21 -1 24.5 -1.5 C28 -1 28 -1 29.65234375 0.61328125 C31.37231504 3.65937533 31.66924108 6.21689462 32.0625 9.6875 C32.79586823 15.59823897 32.79586823 15.59823897 33.9375 21.4375 C34.09863281 22.13101562 34.25976562 22.82453125 34.42578125 23.5390625 C34.61527344 24.35117187 34.80476563 25.16328125 35 26 C40.56895676 50.30589009 40.56895676 50.30589009 35 60 C33.13347544 62.94714404 31.76196406 63.07262113 28.3125 64.125 C24.75407347 64.39171936 22.84082074 63.70852435 20 61.5625 C14.23772663 55.9019138 11.28734553 48.24718023 8 41 C7.38971075 39.68931597 6.77779516 38.37938768 6.1640625 37.0703125 C4.75842877 34.05446924 3.37058113 31.03189158 2 28 C2.0721875 28.63164062 2.144375 29.26328125 2.21875 29.9140625 C4.80866835 54.87799773 4.80866835 54.87799773 -0.8125 62.4375 C-3 64 -3 64 -5.5625 64.4375 C-8.46072871 63.9173051 -9.20249942 63.28289343 -11 61 C-11.30883789 59.07739258 -11.30883789 59.07739258 -11.22265625 56.89453125 C-11.20267578 56.0842749 -11.18269531 55.27401855 -11.16210938 54.43920898 C-11.12923828 53.57239502 -11.09636719 52.70558105 -11.0625 51.8125 C-10.92888125 45.39016068 -11.06492884 39.29598387 -12 32.9375 C-12.84780907 26.89839628 -13.28125263 20.97385219 -13.375 14.875 C-13.40078125 14.08085693 -13.4265625 13.28671387 -13.453125 12.46850586 C-13.47116026 7.18473966 -12.50796581 4.1860856 -9 0 C-5.64737261 -1.6763137 -3.554469 -1.00709955 0 0 Z " fill="#FE3534" transform="translate(48,235)"/>
<path d="M0 0 C0.71353638 -0.0038269 1.42707275 -0.00765381 2.16223145 -0.01159668 C3.66497211 -0.01430847 5.16776056 -0.00699854 6.67041016 0.00976562 C8.96233987 0.03119008 11.25113579 0.00994361 13.54296875 -0.015625 C15.00781937 -0.01298159 16.47266806 -0.00785632 17.9375 0 C18.95801453 -0.01214539 18.95801453 -0.01214539 19.99914551 -0.02453613 C23.49339538 0.0438586 25.42222264 0.50209698 28.40820312 2.37304688 C30.46875 4.53125 30.46875 4.53125 30.96875 7.59375 C30.4133905 10.85648706 30.02967356 11.56980487 27.46875 13.53125 C25.29223633 13.96362305 25.29223633 13.96362305 22.80078125 14.04296875 C21.90810547 14.07841797 21.01542969 14.11386719 20.09570312 14.15039062 C19.16693359 14.17294922 18.23816406 14.19550781 17.28125 14.21875 C16.34087891 14.25291016 15.40050781 14.28707031 14.43164062 14.32226562 C12.1110964 14.40472151 9.78994183 14.46966303 7.46875 14.53125 C7.96375 22.45125 7.96375 22.45125 8.46875 30.53125 C9.995 30.20125 11.52125 29.87125 13.09375 29.53125 C22.9154763 27.61954587 22.9154763 27.61954587 27.34375 30.21875 C29.46875 32.53125 29.46875 32.53125 30.09375 35.03125 C29.19363048 38.6317281 27.55156352 39.53381795 24.46875 41.53125 C20.91796875 42.140625 20.91796875 42.140625 17.15625 42.28125 C15.90199219 42.33796875 14.64773438 42.3946875 13.35546875 42.453125 C12.40285156 42.47890625 11.45023437 42.5046875 10.46875 42.53125 C10.46875 46.82125 10.46875 51.11125 10.46875 55.53125 C18.56092257 55.88283582 18.56092257 55.88283582 26.46875 54.53125 C31.61878585 53.02418688 37.16519731 52.8005383 42.46875 53.53125 C44.30078125 54.86328125 44.30078125 54.86328125 45.46875 56.53125 C46.11447193 61.6970254 46.11447193 61.6970254 44.2109375 64.15625 C42.14939674 65.78329562 40.80098175 66.10966114 38.21875 66.53125 C35.08081959 67.0717986 31.97492236 67.63932496 28.86328125 68.3203125 C9.6914418 72.50254863 9.6914418 72.50254863 2.46875 68.90625 C-1.48148452 65.778981 -3.2251803 63.0451215 -3.84472656 57.95654297 C-4.01624473 54.89643291 -4.10354482 51.84567966 -4.15625 48.78125 C-4.2080754 46.70305165 -4.26273437 44.62492192 -4.3203125 42.546875 C-4.34778564 41.53544434 -4.37525879 40.52401367 -4.40356445 39.48193359 C-4.55889674 35.89236187 -4.92627104 32.34749228 -5.31738281 28.77734375 C-5.615332 25.64819702 -5.62716838 22.54757751 -5.59375 19.40625 C-5.58472656 18.28992188 -5.57570313 17.17359375 -5.56640625 16.0234375 C-5.55480469 15.20101562 -5.54320312 14.37859375 -5.53125 13.53125 C-6.706875 13.3765625 -6.706875 13.3765625 -7.90625 13.21875 C-10.53125 12.53125 -10.53125 12.53125 -12.53125 9.53125 C-12.96875 7.09375 -12.96875 7.09375 -12.53125 4.53125 C-8.66026121 0.52791971 -5.35566879 -0.06373909 0 0 Z " fill="#FE3534" transform="translate(373.53125,228.46875)"/>
<path d="M0 0 C3.45157721 1.17500501 4.09928508 1.91919286 5.9375 5 C6.67578125 7.96875 6.67578125 7.96875 7.25 11.5 C8.84159658 20.48624253 11.54672798 29.08859394 14.25830078 37.7890625 C15.19768264 40.84694968 16.07238376 43.92035175 16.9375 47 C17.5975 47 18.2575 47 18.9375 47 C19.11152344 45.96746094 19.11152344 45.96746094 19.2890625 44.9140625 C20.02600547 41.60225853 21.14673433 38.56142618 22.3125 35.375 C24.72763298 28.52692939 25.9715911 21.71989688 26.86083984 14.52294922 C27.47931136 9.81519584 28.40179058 6.12535466 30.9375 2 C33.98050316 0.47849842 36.591585 0.76100607 39.9375 1 C43.45407509 6.27486264 42.69976018 12.87537216 41.9375 19 C39.00709546 33.53580269 34.42637645 52.26569035 23.125 62.5625 C19.57256454 64.16457873 17.6371367 64.23449146 13.8671875 63.75 C10.39606603 62.40090016 8.5807783 60.30131213 6.93701172 56.97607422 C5.87869882 54.48255047 4.89662331 51.97081382 3.9375 49.4375 C3.58792236 48.53435059 3.23834473 47.63120117 2.87817383 46.70068359 C2.19202043 44.92164877 1.5106169 43.14077312 0.83447266 41.35791016 C0.1184637 39.47570697 -0.61884795 37.60161191 -1.36328125 35.73046875 C-5.09332647 26.12452219 -8.86469793 14.38794987 -7.0625 4 C-4.95122877 0.5082822 -4.07609263 0 0 0 Z " fill="#FE3534" transform="translate(427.0625,234)"/>
<path d="M0 0 C9.25538393 1.3221977 17.43487306 11.87200248 24.06396484 18.14746094 C25.25587602 19.27007024 26.46384915 20.37559725 27.67578125 21.4765625 C34.08373821 27.47247788 39.99847503 35.9311188 40.80078125 44.83984375 C40.80658203 46.62068359 40.80658203 46.62068359 40.8125 48.4375 C40.82925781 49.62214844 40.84601563 50.80679688 40.86328125 52.02734375 C40.38477012 56.60149855 39.18002643 59.99528068 35.703125 63.109375 C29.7000807 66.61515287 23.63180179 69.47251843 16.5 68.5 C14.5625 66.8125 14.5625 66.8125 13.5 64.5 C13.59375 62.11328125 13.59375 62.11328125 14.5 59.5 C16.93359375 57.3671875 16.93359375 57.3671875 19.9375 55.375 C24.26052357 52.49534311 24.26052357 52.49534311 27.5 48.5 C28.5051013 43.14590268 28.0100419 38.56025688 25.1875 33.875 C20.94886379 28.16249748 14.84559934 23.67279967 8.5 20.5 C8.47528262 25.28718692 8.45713175 30.0743367 8.44506836 34.86157227 C8.44003935 36.49015958 8.43321535 38.11874237 8.42456055 39.74731445 C8.41243231 42.08806472 8.40675737 44.4287553 8.40234375 46.76953125 C8.39718246 47.49775589 8.39202118 48.22598053 8.38670349 48.97627258 C8.38635721 52.09602288 8.50544396 54.51633188 9.5 57.5 C9.84710744 63.97933884 9.84710744 63.97933884 7.5 67.5 C2.10743802 67.02066116 2.10743802 67.02066116 -0.25 65 C-4.36047169 56.77905661 -3.81021285 47.523525 -3.76074219 38.56933594 C-3.74995959 36.24127545 -3.76071598 33.9139755 -3.7734375 31.5859375 C-3.77211687 30.09374831 -3.76955648 28.60155959 -3.765625 27.109375 C-3.77169769 26.07487213 -3.77169769 26.07487213 -3.77789307 25.01947021 C-3.7394522 21.04827067 -3.15209534 18.09857572 -1.5 14.5 C-1.10760052 11.28232423 -1.08288035 10.05059794 -3.0625 7.4375 C-4.5 5.5 -4.5 5.5 -4.25 3.3125 C-3.1446824 0.64131581 -2.93664233 0.58732847 0 0 Z " fill="#FE3535" transform="translate(310.5,229.5)"/>
<path d="M0 0 C2.0625 1.25 2.0625 1.25 3 3 C3.03125 5.33203125 3.03125 5.33203125 2 8 C-0.32799147 9.84164445 -2.91817703 11.10664299 -5.5625 12.4375 C-7.02821593 13.21728097 -8.4917873 14.00110712 -9.953125 14.7890625 C-10.65501953 15.16579102 -11.35691406 15.54251953 -12.08007812 15.93066406 C-17.01615725 18.67990447 -22.1842506 21.98139302 -25 27 C-25.02157818 31.029726 -24.32902318 32.62184416 -21.671875 35.67578125 C-20.70765625 36.54589844 -19.7434375 37.41601562 -18.75 38.3125 C-12.09093488 44.64919631 -7.81703925 49.67253337 -7.5 59.125 C-7.80680421 65.65080842 -9.03239129 69.72171623 -13.375 74.75 C-18.34304761 79.00832652 -21.42592276 80.33200604 -27.9140625 80.3984375 C-30.52334195 79.90003581 -31.41366747 79.1018906 -33 77 C-33.43528579 73.66280894 -33.22757087 71.54884738 -31.9375 68.4375 C-30.07808664 66.09823804 -28.80369652 65.20037238 -26.3125 63.6875 C-23.1529935 61.53634664 -23.05086806 61.23868858 -22.1875 57.1875 C-22.93341569 49.39194976 -29.88820119 43.90331516 -35.265625 38.859375 C-37.77042073 36.17405345 -38.84954943 33.92419639 -39.4375 30.3125 C-38.26376442 21.42564489 -31.50040089 13.76991487 -25 8 C-17.23897501 2.60254994 -9.63738114 -2.24404717 0 0 Z " fill="#FE3434" transform="translate(244,224)"/>
<path d="M0 0 C4.91619753 0.64300421 9.81559972 0.83000736 14.76953125 0.95703125 C18.40669378 1.60551759 20.12341033 3.0051675 22.79296875 5.49609375 C22.54296875 7.87109375 22.54296875 7.87109375 21.79296875 10.49609375 C18.17577249 13.1536257 13.85885513 12.93808797 9.54296875 13.12109375 C8.79789063 13.15976563 8.0528125 13.1984375 7.28515625 13.23828125 C5.45481635 13.33214483 3.62392732 13.41519093 1.79296875 13.49609375 C0.83699243 17.54341176 0.64143462 21.36620052 0.58203125 25.51953125 C0.55396286 26.88412658 0.52529839 28.24870976 0.49609375 29.61328125 C0.45492076 31.74153294 0.41798779 33.86955757 0.39160156 35.99804688 C0.36378248 38.06817062 0.317925 40.13729923 0.26953125 42.20703125 C0.24971191 43.43728027 0.22989258 44.6675293 0.20947266 45.93505859 C-0.27660636 50.09094874 -1.3021 52.78593839 -3.20703125 56.49609375 C-6.04786766 57.91651196 -8.06180403 57.81061647 -11.20703125 57.49609375 C-13.9595711 55.41562826 -15.08667176 54.25579404 -15.6328125 50.80859375 C-15.59542969 49.71546875 -15.55804688 48.62234375 -15.51953125 47.49609375 C-15.48472656 46.19542969 -15.44992188 44.89476562 -15.4140625 43.5546875 C-15.3826416 42.78753418 -15.3512207 42.02038086 -15.31884766 41.22998047 C-15.18323446 37.91426752 -15.07646128 34.59798488 -14.96875 31.28125 C-14.73780189 24.351927 -14.47970491 17.4238903 -14.20703125 10.49609375 C-15.17125 10.51929688 -16.13546875 10.5425 -17.12890625 10.56640625 C-18.3921875 10.58445313 -19.65546875 10.6025 -20.95703125 10.62109375 C-22.21 10.64429688 -23.46296875 10.6675 -24.75390625 10.69140625 C-27.93523617 10.51146677 -29.57225021 10.18607957 -32.20703125 8.49609375 C-32.20703125 6.51609375 -32.20703125 4.53609375 -32.20703125 2.49609375 C-22.03799148 -3.88448022 -11.39317726 -1.71192819 0 0 Z " fill="#FE3737" transform="translate(180.20703125,237.50390625)"/>
<path d="M0 0 C0.88464432 -0.00960754 1.76928864 -0.01921509 2.68074036 -0.02911377 C3.63905258 -0.03336365 4.59736481 -0.03761353 5.5847168 -0.04199219 C7.06091743 -0.0505423 7.06091743 -0.0505423 8.56694031 -0.05926514 C10.65252607 -0.06872269 12.73812682 -0.07525211 14.82373047 -0.07910156 C18.01060181 -0.0887962 21.19682534 -0.11980819 24.38354492 -0.15136719 C26.40893171 -0.15789827 28.43432312 -0.16314833 30.4597168 -0.16699219 C31.41195633 -0.17933899 32.36419586 -0.19168579 33.34529114 -0.20440674 C38.26303632 -0.18790006 41.7876539 -0.14469624 45.72143555 3.16113281 C47.72143555 6.16113281 47.72143555 6.16113281 47.53393555 9.66113281 C46.4661164 14.26096915 46.4661164 14.26096915 43.72143555 16.16113281 C40.94252064 17.08743778 39.20428813 17.30174238 36.3293457 17.33813477 C35.00249252 17.35738762 35.00249252 17.35738762 33.64883423 17.37702942 C32.69568329 17.38441635 31.74253235 17.39180328 30.76049805 17.39941406 C29.77777924 17.40748581 28.79506042 17.41555756 27.78256226 17.4238739 C25.7029598 17.43770436 23.62333474 17.44843116 21.54370117 17.45629883 C18.3655299 17.47352929 15.18839423 17.51742705 12.01049805 17.56152344 C9.98967236 17.5716491 7.96883784 17.5801656 5.94799805 17.58691406 C4.52434433 17.61317619 4.52434433 17.61317619 3.07192993 17.63996887 C-1.1777911 17.62601307 -3.62914827 17.54404378 -7.35131836 15.34936523 C-10.05010376 12.28511218 -10.34961752 10.21115745 -10.27856445 6.16113281 C-7.36150677 1.53407581 -5.34736024 0.04681612 0 0 Z " fill="#FE3B3A" transform="translate(231.278564453125,164.8388671875)"/>
<path d="M0 0 C5.6618874 3.4234668 7.64767318 8.16222651 9.1875 14.375 C10.62235636 21.62224058 10.61665068 27.41252911 7 34 C4.88475985 36.18574815 3.54671614 36.85612733 0.625 37.625 C-2.93346389 36.77774669 -4.34089246 35.22989253 -6.57421875 32.390625 C-10.70846331 25.45868617 -12.96914288 17.03004102 -12 9 C-10.0417061 2.33121536 -7.27651392 -0.87318167 0 0 Z " fill="#EFE3D8" transform="translate(271,248)"/>
<path d="M0 0 C5.6618874 3.4234668 7.64767318 8.16222651 9.1875 14.375 C10.62235636 21.62224058 10.61665068 27.41252911 7 34 C4.88475985 36.18574815 3.54671614 36.85612733 0.625 37.625 C-2.93346389 36.77774669 -4.34089246 35.22989253 -6.57421875 32.390625 C-10.70846331 25.45868617 -12.96914288 17.03004102 -12 9 C-10.0417061 2.33121536 -7.27651392 -0.87318167 0 0 Z " fill="#EFE3D8" transform="translate(120,248)"/>
<path d="M0 0 C2.375 -0.125 2.375 -0.125 5 0 C5.66 0.66 6.32 1.32 7 2 C6.625 5.625 6.625 5.625 6 9 C4.02 9 2.04 9 0 9 C0 6.03 0 3.06 0 0 Z " fill="#94928D" transform="translate(248,322)"/>
<path d="M0 0 C2.125 0.375 2.125 0.375 4 1 C4 3.64 4 6.28 4 9 C2.33388095 9.042721 0.66617115 9.04063832 -1 9 C-2 8 -2 8 -2.1875 5.0625 C-2 2 -2 2 0 0 Z " fill="#989690" transform="translate(270,322)"/>
<path d="M0 0 C0.33 0.99 0.66 1.98 1 3 C3.01508358 3.73323796 3.01508358 3.73323796 5 4 C5 5.32 5 6.64 5 8 C3.35 8 1.7 8 0 8 C-0.33 7.34 -0.66 6.68 -1 6 C0.32 6.33 1.64 6.66 3 7 C3 6.34 3 5.68 3 5 C1.68 4.34 0.36 3.68 -1 3 C-0.67 2.01 -0.34 1.02 0 0 Z " fill="#6F6E6C" transform="translate(280,323)"/>
</svg>
